<?xml version="1.0" ?><svg height="500" id="svg2" version="1.1" width="500" xmlns="http://www.w3.org/2000/svg" xmlns:cc="http://creativecommons.org/ns#" xmlns:dc="http://purl.org/dc/elements/1.1/" xmlns:inkscape="http://www.inkscape.org/namespaces/inkscape" xmlns:rdf="http://www.w3.org/1999/02/22-rdf-syntax-ns#" xmlns:sodipodi="http://sodipodi.sourceforge.net/DTD/sodipodi-0.dtd" xmlns:svg="http://www.w3.org/2000/svg"><defs id="defs4"/><g id="layer1" transform="translate(0,-552.36218)"><rect height="500" id="rect3048" style="opacity:1;fill:#cb1f26;fill-opacity:1;stroke:none" width="500" x="0" y="552.36218"/><g id="layer1-9" transform="translate(-549.00515,80.294372)"/><g id="layer1-6" transform="translate(-575.71429,39.999999)"/><g id="layer1-1" transform="matrix(0.99974425,0,0,0.99974425,549.52522,-36.115804)"/><path d="M 500,500 224.82208,500 163.9446,439.12252 186.2122,329.50208 122.23899,265.52887 137.85714,137.14286 259.28572,74.285713 363.35492,98.890629 500,235.53571 z" id="path3828" style="fill:#000000;stroke:none;stroke-width:1px;stroke-linecap:butt;stroke-linejoin:miter;stroke-opacity:1;opacity:0.29999999999999999" transform="translate(0,552.36218)"/><path d="M 259.125 60 C 152.14249 60 98.21875 134.33142 98.21875 196.34375 C 98.21875 233.88396 112.86974 267.28424 144.3125 279.71875 C 149.47027 281.77973 154.0976 279.81542 155.59375 274.28125 C 156.63317 270.46464 159.09296 260.81922 160.1875 256.78125 C 161.69154 251.30822 161.13434 249.3798 156.96875 244.59375 C 147.90524 234.23548 142.09375 220.80324 142.09375 201.78125 C 142.09375 146.62354 184.65012 97.25 252.9375 97.25 C 313.40554 97.25 346.625 133.05284 346.625 180.875 C 346.625 243.81859 317.89813 296.96875 275.25 296.96875 C 251.68961 296.96875 234.08063 278.0731 239.71875 254.90625 C 246.48293 227.25107 259.59375 197.41366 259.59375 177.4375 C 259.59375 159.57575 249.65322 144.6875 229.1875 144.6875 C 205.10737 144.6875 185.8125 168.84553 185.8125 201.1875 C 185.8125 221.78959 192.96875 235.71875 192.96875 235.71875 C 192.96875 235.71875 168.32307 336.9319 164 354.65625 C 155.40109 389.95992 162.69041 433.22767 163.3125 437.59375 C 163.67472 440.18909 167.12835 440.79785 168.6875 438.84375 C 170.90021 436.02707 199.60303 401.70995 209.34375 367.40625 C 212.10768 357.70442 225.1875 307.4375 225.1875 307.4375 C 233.01472 321.91008 255.87114 334.625 280.1875 334.625 C 352.56174 334.625 401.6875 270.67674 401.6875 185.0625 C 401.69542 120.30983 345.09845 60 259.125 60 z " id="rect2989" style="fill:#ffffff;fill-opacity:1;stroke:none" transform="translate(0,552.36218)"/></g></svg>